<?xml version="1.0" encoding="utf-8"?>
<!-- Generator: Adobe Illustrator 21.1.0, SVG Export Plug-In . SVG Version: 6.00 Build 0)  -->
<svg version="1.1" id="Layer_1" xmlns="http://www.w3.org/2000/svg" xmlns:xlink="http://www.w3.org/1999/xlink" x="0px" y="0px"
	 viewBox="0 0 64 64" style="enable-background:new 0 0 64 64;" xml:space="preserve">
<style type="text/css">
	.st0{fill:#FFFFFF;}
	.st1{fill-rule:evenodd;clip-rule:evenodd;fill:#ACBDC5;}
	.st2{fill:#597380;}
	.st3{fill-rule:evenodd;clip-rule:evenodd;fill:#314A52;}
</style>
<g id="Laptop">
	<rect x="3" y="47" class="st0" width="58" height="6"/>
	<path class="st1" d="M20,52h12c13.3,0,24-1.8,24-4c0-0.3-0.3-0.7-0.8-1H52v1H39.5c-0.7,1.2-2,2-3.5,2h-8c-1.5,0-2.8-0.8-3.5-2H4.9
		C4.3,48.3,4,48.6,4,49C4,50.7,11.2,52,20,52z M7,11h50v36h4v6h-9v3H7c-3.9,0-7-3.1-7-7v-5h7V11z"/>
	<path class="st2" d="M10,8c-3.3,0-6,2.7-6,6v30h24c0,1.1,0.9,2,2,2h4c1.1,0,2-0.9,2-2h21V20h-1c0,8.8-14.3,16-32,16
		c-8.8,0-16-2.7-16-6V14c0-1.1,0.9-2,2-2h10V8H10z"/>
	<path class="st3" d="M16,8h38c3.3,0,6,2.7,6,6v30h4v5c0,3.9-3.1,7-7,7h-9v-4h9c1.7,0,3-1.3,3-3v-1H48v-4h8V14c0-1.1-0.9-2-2-2H16V8
		z"/>
</g>
</svg>
